/vscmnt/brussel_pixiu_data/_data_brussel/112/vsc11236/PredSimResults/SUBJ06opt3D/trackIG/worker_07.mot
version=1
nRows=7
nColumns=50
inDegrees=yes
endheader
                time	         pelvis_tilt	         pelvis_list	     pelvis_rotation	           pelvis_tx	           pelvis_ty	           pelvis_tz	       hip_flexion_r	     hip_adduction_r	      hip_rotation_r	        knee_angle_r	       ankle_angle_r	         mtp_angle_r	       hip_flexion_l	     hip_adduction_l	      hip_rotation_l	        knee_angle_l	       ankle_angle_l	         mtp_angle_l	    lumbar_extension	      lumbar_bending	     lumbar_rotation	 ercspn_r/activation	 intobl_r/activation	 extobl_r/activation	    abd_r/activation	    add_r/activation	hamstrings_r/activation	bifemsh_r/activation	glut_max_r/activation	iliopsoas_r/activation	rect_fem_r/activation	  vasti_r/activation	gastroc_r/activation	 soleus_r/activation	tib_ant_r/activation	 ercspn_l/activation	 intobl_l/activation	 extobl_l/activation	    abd_l/activation	    add_l/activation	hamstrings_l/activation	bifemsh_l/activation	glut_max_l/activation	iliopsoas_l/activation	rect_fem_l/activation	  vasti_l/activation	gastroc_l/activation	 soleus_l/activation	tib_ant_l/activation	
          1.19140492	         -6.16779785	         -1.01624350	          5.68784873	          1.42968591	          0.92691365	         -0.01070568	         33.29114331	         -1.35331528	         -8.81201465	        -10.27914216	          0.36871970	          0.23281638	        -11.13033229	         -1.06487026	         -6.81953496	        -11.56232637	          7.27461182	         35.39108257	         -5.76995858	          0.05266737	         -8.12680567	          0.17320517	          0.14887479	          0.01000006	          0.00999999	          0.42758753	          0.05664258	          0.10961580	          0.09484487	          0.10535511	          0.01000036	          0.01000002	          0.01000010	          0.01000001	          0.52531534	          0.18102072	          0.01000000	          0.01000002	          0.06350388	          0.01000025	          0.01000012	          0.19281454	          0.01436565	          0.54613620	          0.01683207	          0.01000008	          0.21562247	          0.35251148	          0.02042023	
          1.20331897	         -6.22649276	         -0.99729705	          5.70236271	          1.44721323	          0.92526553	         -0.01007814	         33.27056097	         -1.28466989	         -8.77953978	        -12.01331766	          0.09946248	          0.20162829	        -11.49392153	         -1.25708736	         -7.19727712	        -12.64467718	          6.07443693	         37.34431987	         -5.44350773	          0.42966460	         -8.55842370	          0.14451017	          0.12421063	          0.01000006	          0.01431443	          0.35674885	          0.06745429	          0.09145571	          0.13333032	          0.08790086	          0.01000007	          0.01000033	          0.01436584	          0.01436565	          0.55277198	          0.18078213	          0.01000001	          0.01000007	          0.05298315	          0.01000316	          0.01198551	          0.18274911	          0.01198570	          0.52649625	          0.01404356	          0.01000010	          0.17990017	          0.32433316	          0.01703720	
          1.21523302	         -6.26226116	         -1.02135110	          5.68538072	          1.46505883	          0.92383796	         -0.00932858	         33.06596421	         -1.21699545	         -8.78704872	        -13.56117003	         -0.14823127	          0.19267250	        -11.66300999	         -1.53506179	         -7.58453374	        -14.13357341	          4.75673219	         39.29934856	         -5.10326363	          0.85025435	         -8.93960645	          0.16407074	          0.10363258	          0.01000005	          0.08450510	          0.33289812	          0.06709834	          0.07630423	          0.13160202	          0.07333827	          0.01000004	          0.02141236	          0.01198586	          0.01198569	          0.61535406	          0.16979767	          0.01000000	          0.01000003	          0.04420540	          0.01000009	          0.01000022	          0.18974744	          0.01000004	          0.51580516	          0.01171711	          0.01000001	          0.15009599	          0.28365625	          0.01421463	
          1.22714707	         -6.27666405	         -1.05656264	          5.63295722	          1.48297765	          0.92273151	         -0.00844575	         32.78244783	         -1.14410303	         -8.90175564	        -14.98066182	         -0.51570618	          0.16705194	        -11.55675935	         -1.87409117	         -7.98465855	        -16.13953535	          3.28264906	         41.21517280	         -4.78008471	          1.27865102	         -9.26083004	          0.16524027	          0.08646370	          0.01000005	          0.13214018	          0.31036655	          0.07059057	          0.06366290	          0.16226288	          0.06118827	          0.01000004	          0.08345602	          0.01000017	          0.01000002	          0.66825220	          0.20563144	          0.01000000	          0.01000003	          0.03688186	          0.01000011	          0.01000017	          0.17543065	          0.01000001	          0.43035144	          0.01000025	          0.01000001	          0.12522949	          0.23666274	          0.01185969	
          1.23906112	         -6.27250363	         -1.11771627	          5.55269474	          1.50077120	          0.92210792	         -0.00744282	         32.46383544	         -1.03651842	         -9.03875423	        -16.39692608	         -0.57737404	          0.12463803	        -11.12054847	         -2.29947870	         -8.39483875	        -18.71055198	          1.61064904	         42.95410672	         -4.48808247	          1.73023295	         -9.52263959	          0.15486491	          0.07213921	          0.01000005	          0.18113772	          0.27173779	          0.07301076	          0.05311587	          0.16732387	          0.05105117	          0.01000003	          0.15881802	          0.01000002	          0.01000000	          0.66491194	          0.24568152	          0.01000001	          0.01000003	          0.03077162	          0.01000069	          0.03610925	          0.15318017	          0.01000001	          0.35905485	          0.01000009	          0.01000000	          0.10448264	          0.19745467	          0.01000000	
          1.25097517	         -6.25477248	         -1.21314921	          5.45527973	          1.51824713	          0.92216104	         -0.00633543	         32.10263794	         -0.86485523	         -9.09668023	        -17.81790193	         -0.04249674	          0.13682971	        -10.31701534	         -2.82748548	         -8.81108240	        -21.85334501	         -0.27170273	         44.22388770	         -4.23862636	          2.20980716	         -9.73372273	          0.14124712	          0.06018786	          0.01000005	          0.21864800	          0.24312910	          0.06954060	          0.04431617	          0.16216627	          0.04259349	          0.01000003	          0.25604004	          0.01000010	          0.01000002	          0.58153893	          0.27719936	          0.01000001	          0.01000003	          0.02567366	          0.11135976	          0.09448144	          0.12808942	          0.01000000	          0.29957000	          0.01000006	          0.01000000	          0.08717293	          0.16474222	          0.01000001	
          1.26288922	         -6.22977741	         -1.32325213	          5.34083415	          1.53526289	          0.92307904	         -0.00515511	         31.60801831	         -0.62920438	         -9.05610135	        -19.04263563	          1.00645780	          0.33003729	         -9.12652696	         -3.44358069	         -9.25058816	        -25.57299360	         -2.24486224	         44.44950329	         -4.04052061	          2.69339170	         -9.89505130	          0.13110991	          0.05021650	          0.01000006	          0.23706937	          0.22008258	          0.07129032	          0.03697433	          0.13530014	          0.03553700	          0.01000002	          0.29788613	          0.01000009	          0.01000001	          0.48519508	          0.28023502	          0.01000002	          0.01000004	          0.02142029	          0.19415464	          0.10405747	          0.10686937	          0.01000000	          0.24994004	          0.01000006	          0.01000000	          0.07273094	          0.13744927	          0.01000000	
